<svg fill="none" height="16" viewBox="0 0 16 16" width="16" xmlns="http://www.w3.org/2000/svg" xmlns:xlink="http://www.w3.org/1999/xlink"><clipPath id="a"><path d="m0 0h16v16h-16z"/></clipPath><g clip-path="url(#a)"><path d="m1.73999 1v4.42105m0 0h4.42105m-4.42105 0 1.94551-1.74582c1.01758-1.01579 2.33776-1.67339 3.7616-1.8737 1.42385-.20032 2.8742.06751 4.1326.76311s2.2566 1.78129 2.8443 3.0935c.5876 1.31221.7329 2.77985.4138 4.18177-.319 1.40189-1.0851 2.66219-2.1827 3.59089-1.0977.9288-2.4674 1.4756-3.90293 1.5582-1.43549.0827-2.85896-.3035-4.05591-1.1001-1.19695-.7967-2.10255-1.9608-2.58035-3.3168" stroke="#fff" stroke-linecap="round" stroke-linejoin="round" stroke-width="2"/></g></svg>