<svg fill="none" height="48" viewBox="0 0 112 48" width="112" xmlns="http://www.w3.org/2000/svg"><rect fill="#15c2b8" height="48" rx="24" width="112"/><g fill="#fff"><rect height="15" rx="1" width="4" x="25" y="17"/><rect height="15" rx="1" width="4" x="33" y="17"/><path d="m44.834 30h2.0508v-3.2266h1.7773c2.2832 0 3.5957-1.3604 3.5957-3.3359 0-1.9483-1.292-3.336-3.541-3.336h-3.8828zm2.0508-4.8809v-3.3359h1.4492c1.2168.0068 1.8115.6699 1.8047 1.6543.0068.998-.5879 1.6816-1.8047 1.6816zm7.1777 4.8809.7451-2.2833h3.582l.7452 2.2833h2.2011l-3.4179-9.8985h-2.6387l-3.4316 9.8985zm1.2646-3.8829 1.2374-3.7871h.0683l1.2373 3.7871zm13.2549-6.0156v6.2617c.0069 1.1416-.7998 1.9619-2.0371 1.9688-1.2236-.0069-2.0303-.8272-2.0371-1.9688v-6.2617h-2.0508v6.4258c0 2.167 1.627 3.6162 4.0879 3.6094 2.4541.0068 4.1016-1.4424 4.1016-3.6094v-6.4258zm9.1055 2.8301h1.9687c-.0273-1.75-1.4697-2.9668-3.664-2.9668-2.167 0-3.7529 1.1963-3.7461 2.9941 0 1.4493 1.0254 2.2832 2.6934 2.6934l1.08.2598c1.0801.2666 1.6953.581 1.6953 1.2578 0 .7383-.6972 1.2441-1.7773 1.2441-1.0937 0-1.8867-.5058-1.9551-1.5039h-1.9961c.0616 2.126 1.586 3.2334 3.9785 3.2266 2.4131.0068 3.8213-1.1553 3.8282-2.9668-.0069-1.6475-1.2715-2.5088-2.9668-2.8985l-.8887-.2187c-.8545-.1914-1.5928-.5127-1.5859-1.2305.0068-.6562.5879-1.1347 1.6269-1.1347 1.0049 0 1.627.458 1.709 1.2441zm3.4453 7.0684h6.6582v-1.6954h-4.6074v-2.4062h4.2519v-1.6953h-4.2519v-2.4063h4.5937v-1.6953h-6.6445z"/></g></svg>