<svg fill="none" height="48" viewBox="0 0 112 48" width="112" xmlns="http://www.w3.org/2000/svg" xmlns:xlink="http://www.w3.org/1999/xlink"><filter id="a" color-interpolation-filters="sRGB" filterUnits="userSpaceOnUse" height="49" width="113" x="0" y="0"><feFlood flood-opacity="0" result="BackgroundImageFix"/><feBlend in="SourceGraphic" in2="BackgroundImageFix" mode="normal" result="shape"/><feColorMatrix in="SourceAlpha" result="hardAlpha" type="matrix" values="0 0 0 0 0 0 0 0 0 0 0 0 0 0 0 0 0 0 127 0"/><feOffset dx="1" dy="1"/><feGaussianBlur stdDeviation=".5"/><feComposite in2="hardAlpha" k2="-1" k3="1" operator="arithmetic"/><feColorMatrix type="matrix" values="0 0 0 0 0 0 0 0 0 0 0 0 0 0 0 0 0 0 0.05 0"/><feBlend in2="shape" mode="normal" result="effect1_innerShadow_6_1768"/></filter><clipPath id="b"><path d="m23.5 16.5h16v16h-16z"/></clipPath><g filter="url(#a)"><rect fill="#324577" height="48" rx="24" width="112"/></g><path d="m23.5 16h65v17h-65z" fill="#324577"/><g clip-path="url(#b)"><path d="m25.24 17.5v4.421m0 0h4.421m-4.421 0 1.9455-1.7458c1.0176-1.0158 2.3378-1.6734 3.7616-1.8737s2.8742.0675 4.1326.7631 2.2566 1.7813 2.8443 3.0935c.5876 1.3122.7329 2.7798.4138 4.1818-.319 1.4019-1.0851 2.6622-2.1827 3.5909-1.0977.9287-2.4674 1.4756-3.9029 1.5582s-2.859-.3035-4.0559-1.1002c-1.197-.7966-2.1026-1.9607-2.5804-3.3168" stroke="#617199" stroke-linecap="round" stroke-linejoin="round" stroke-width="2"/></g><path d="m45.334 30h2.0508v-3.5137h1.5654l1.8936 3.5137h2.2695l-2.1055-3.8487c1.1279-.4853 1.75-1.4697 1.75-2.8232 0-1.9619-1.292-3.2266-3.541-3.2266h-3.8828zm2.0508-5.1817v-3.0351h1.4492c1.2168.0068 1.8115.5468 1.8047 1.5449.0068.9912-.5879 1.4902-1.8047 1.4902zm6.7949 5.1817h6.6582v-1.6954h-4.6074v-2.4062h4.2519v-1.6953h-4.2519v-2.4063h4.5937v-1.6953h-6.6445zm13.6172-7.0684h1.9687c-.0273-1.75-1.4697-2.9668-3.664-2.9668-2.167 0-3.753 1.1963-3.7461 2.9941 0 1.4493 1.0254 2.2832 2.6933 2.6934l1.0801.2598c1.0801.2666 1.6953.581 1.6953 1.2578 0 .7383-.6972 1.2441-1.7773 1.2441-1.0938 0-1.8867-.5058-1.9551-1.5039h-1.9961c.0615 2.126 1.5859 3.2334 3.9785 3.2266 2.4131.0068 3.8213-1.1553 3.8281-2.9668-.0068-1.6475-1.2714-2.5088-2.9668-2.8985l-.8886-.2187c-.8545-.1914-1.5928-.5127-1.586-1.2305.0069-.6562.5879-1.1347 1.627-1.1347 1.0049 0 1.6269.458 1.709 1.2441zm3.4453 7.0684h6.6582v-1.6954h-4.6074v-2.4062h4.2519v-1.6953h-4.2519v-2.4063h4.5937v-1.6953h-6.6445zm7.8613-8.2032h3.0352v8.2032h2.0371v-8.2032h3.0351v-1.6953h-8.1074z" fill="#617199"/></svg>