<svg fill="none" height="48" viewBox="0 0 112 48" width="112" xmlns="http://www.w3.org/2000/svg"><rect fill="#5180ff" height="48" rx="24" width="112"/><g fill="#fff"><path d="m27 30.9635v-12.9271c0-.8306.9541-1.2992 1.6114-.7912l8.3646 6.4635c.5181.4003.5181 1.1822 0 1.5825l-8.3646 6.4635c-.6573.508-1.6114.0394-1.6114-.7912z"/><path d="m50.207 22.9316h1.9688c-.0274-1.75-1.4697-2.9668-3.6641-2.9668-2.167 0-3.7529 1.1963-3.7461 2.9941 0 1.4493 1.0254 2.2832 2.6934 2.6934l1.0801.2598c1.08.2666 1.6953.581 1.6953 1.2578 0 .7383-.6973 1.2441-1.7774 1.2441-1.0937 0-1.8867-.5058-1.955-1.5039h-1.9961c.0615 2.126 1.5859 3.2334 3.9785 3.2266 2.4131.0068 3.8213-1.1553 3.8281-2.9668-.0068-1.6475-1.2715-2.5088-2.9668-2.8985l-.8887-.2187c-.8545-.1914-1.5927-.5127-1.5859-1.2305.0068-.6562.5879-1.1347 1.6269-1.1347 1.0049 0 1.627.458 1.709 1.2441zm3.0625-1.1348h3.0352v8.2032h2.0371v-8.2032h3.0352v-1.6953h-8.1075zm9.8164 8.2032.7452-2.2833h3.582l.7451 2.2833h2.2012l-3.418-9.8985h-2.6387l-3.4316 9.8985zm1.2647-3.8829 1.2373-3.7871h.0683l1.2374 3.7871zm7.1299 3.8829h2.0507v-3.5137h1.5655l1.8935 3.5137h2.2696l-2.1055-3.8487c1.1279-.4853 1.75-1.4697 1.75-2.8232 0-1.9619-1.292-3.2266-3.541-3.2266h-3.8828zm2.0507-5.1817v-3.0351h1.4493c1.2168.0068 1.8115.5468 1.8047 1.5449.0068.9912-.5879 1.4902-1.8047 1.4902zm6.4122-3.0215h3.0351v8.2032h2.0371v-8.2032h3.0352v-1.6953h-8.1074z"/></g></svg>